<?xml version="1.0" encoding="UTF-8"?>
<svg id="Layer_2" data-name="Layer 2" xmlns="http://www.w3.org/2000/svg" xmlns:xlink="http://www.w3.org/1999/xlink" viewBox="0 0 1659.99 302.05">
  <defs>
    <style>
      .cls-1 {
        fill: url(#linear-gradient-2);
      }

      .cls-2 {
        fill: #fff;
      }

      .cls-3 {
        fill: url(#linear-gradient);
      }
    </style>
    <linearGradient id="linear-gradient" x1="336.77" y1="332.1" x2="371.86" y2="-22.17" gradientUnits="userSpaceOnUse">
      <stop offset="0" stop-color="#e430ee"/>
      <stop offset="1" stop-color="#2daed9"/>
    </linearGradient>
    <linearGradient id="linear-gradient-2" x1="177.33" y1="316.3" x2="212.42" y2="-37.97" xlink:href="#linear-gradient"/>
  </defs>
  <g id="Layer_1-2" data-name="Layer 1">
    <g>
      <g>
        <path class="cls-2" d="m865.34,4.28v292.44h-52.22l-127.84-196.77v196.77h-55.15V4.28h52.22l127.84,196.36V4.28h55.15Z"/>
        <path class="cls-2" d="m988.99,76.97c11.97,0,24.16,2.37,36.56,7.1,12.39,4.74,23.95,11.49,34.67,20.26,10.72,8.77,19.49,20.54,26.32,35.3,6.82,14.77,10.24,31.06,10.24,48.88,0,6.97-.42,13.51-1.25,19.64h-160.43c2.78,13.93,9.61,25,20.47,33.21,10.86,8.22,22.42,12.32,34.67,12.32,18.38,0,32.59-5.43,42.61-16.29l43.87,22.98c-22.56,26.18-51.53,39.27-86.9,39.27-9.19,0-18.73-1.4-28.62-4.18-9.89-2.78-19.71-7.17-29.45-13.16-9.75-5.98-18.45-13.22-26.11-21.72-7.66-8.49-13.86-19.01-18.59-31.54-4.74-12.53-7.1-26.04-7.1-40.52,0-23.67,5.92-44.28,17.76-61.83,11.83-17.55,25.83-30.22,41.99-38.02,16.15-7.79,32.59-11.7,49.3-11.7Zm0,46.37c-12.53,0-23.81,3.9-33.84,11.7-10.03,7.8-16.57,18.8-19.64,33h107.37c-3.07-14.2-9.82-25.2-20.26-33-10.45-7.79-21.66-11.7-33.63-11.7Z"/>
        <path class="cls-2" d="m1203.46,208.35l-17.49,13.1,52.43,75.21,60.12.54-61.73-83.93c-7.81-10.62-22.78-12.83-33.33-4.93Zm88.01-128.89h-58.93l-46.79,69.37-46.79-69.37h-58.89l76.02,105.72-83.52,111.52h60.13l53.05-74.74,29.66-36.77,76.06-105.72Z"/>
        <path class="cls-2" d="m1536.33,296.72l-26.32-58.07h-116.98l-26.32,58.07h-60.16L1446.93,4.28h8.77l140.37,292.44h-59.74Zm-122.82-103.61h76.03l-38.02-83.97-38.01,83.97Z"/>
        <path class="cls-2" d="m1659.99,4.28v292.44h-55.98V4.28h55.98Z"/>
      </g>
      <g>
        <path class="cls-3" d="m443.8,12.38l-99.07,192.47c-8.96,17.41-33.86,17.41-42.82,0l-27.71-53.83h-98.24l45.87,89.12c19.56,38.01,58.73,61.9,101.48,61.9h0c42.75,0,81.92-23.89,101.48-61.9L548.41,0h-84.31C455.55,0,447.71,4.78,443.8,12.38Z"/>
        <path class="cls-1" d="m372.44,151.02l-45.87-89.13C307,23.89,267.84,0,225.09,0h0c-42.75,0-81.91,23.89-101.48,61.9L0,302.05h84.31c8.55,0,16.39-4.78,20.3-12.38l99.07-192.46c8.96-17.41,33.86-17.41,42.82,0l27.7,53.82h98.24Z"/>
      </g>
    </g>
  </g>
</svg>